# xmcd
#
# Track frame offsets: 
#        150
#        9592
#        19947
#        39235
#        54890
#        65717
#        73100
#        86260
#        96562
#        112355
#        122295
#        133232
#        146132
#        156220
#        178020
#        189465
#        202642
#        215047
#        229422
#        245240
#        259407
#        267362
#        287822
#        304710
#        316082
#
# Disc length: 4540 seconds
#
# Revision: 11
# Processed by: cddbd v1.5.2PL0 Copyright (c) Steve Scherf et al.
# Submitted via: ExactAudioCopyFreeDBPlugin 1.0
#
DISCID=7d11ba19
DTITLE=Various Artist - Country Gold - Vol 4
DYEAR=1997
DGENRE=Country
TTITLE0=Merl Travis - Sixteen tons
TTITLE1=Dave Dudley - Six days on the road
TTITLE2=Kenny Rogers - Coward of the country
TTITLE3=Boxcar Willie - Wabash Cannonball
TTITLE4=Freddy Fender - She's about a mover
TTITLE5=Sir Douglas Quintet - Cotton eyed Joe
TTITLE6=Hank Williams - Hey good looking
TTITLE7=Waylon Jennings - White lightnin'
TTITLE8=Kenny Rogers - The gambler
TTITLE9=Boxcar Willie - Move it on over
TTITLE10=Dolly Parton - Honky tonk angels
TTITLE11=Charlie Rich - The most beautiful girl
TTITLE12=Bobby Bare - Help me make it through the night
TTITLE13=Phil Carmen - Just like a woman (live)
TTITLE14=Freddie Fender - I'm leaving it all up to you
TTITLE15=Boxcar Willie - San Antonio Rose
TTITLE16=Charlie Rich - Behind closed doors
TTITLE17=Loretta Lynn - Coal miner's daughter (live)
TTITLE18=Boxcar Willie - Red river
TTITLE19=Phil Carmen - Born a rider
TTITLE20=Burl Ives - Big Rock Candy Mountain
TTITLE21=Carmen and Thompson - No chance romance
TTITLE22=Bobby Bare - Sylvia's mother
TTITLE23=Loretta Lynn - Love is the foundation
TTITLE24=Phil Carmen - Moonshine still (live)
EXTD=
EXTT0=
EXTT1=
EXTT2=
EXTT3=
EXTT4=
EXTT5=
EXTT6=
EXTT7=
EXTT8=
EXTT9=
EXTT10=
EXTT11=
EXTT12=
EXTT13=
EXTT14=
EXTT15=
EXTT16=
EXTT17=
EXTT18=
EXTT19=
EXTT20=
EXTT21=
EXTT22=
EXTT23=
EXTT24=
PLAYORDER=
